<svg width="70" height="70" viewBox="0 0 70 70" fill="none" xmlns="http://www.w3.org/2000/svg">
<g clip-path="url(#clip0_2078_1191)">
<path d="M68.6798 31.8813L38.1172 1.32033C36.3582 -0.439785 33.5035 -0.439785 31.7423 1.32033L25.3958 7.66682L33.4466 15.7176C35.3175 15.0854 37.4628 15.5096 38.9542 17.0009C40.4526 18.5018 40.8737 20.6655 40.2262 22.5424L47.985 30.3014C49.8621 29.6547 52.028 30.0731 53.5273 31.5748C55.6227 33.6694 55.6227 37.0641 53.5273 39.16C51.4314 41.2562 48.0367 41.2562 45.9397 39.16C44.3636 37.5822 43.9742 35.2676 44.7721 33.3259L37.5364 26.0902L37.5356 45.1316C38.0601 45.3909 38.5392 45.7335 38.9542 46.146C41.0495 48.2406 41.0495 51.6356 38.9542 53.7331C36.8583 55.8282 33.4619 55.8282 31.369 53.7331C29.2737 51.6356 29.2737 48.2408 31.369 46.1463C31.8712 45.6439 32.4679 45.2461 33.1248 44.9757V25.7569C32.4669 25.4884 31.8699 25.0903 31.369 24.5863C29.7814 23.0009 29.3997 20.6715 30.2132 18.7222L22.277 10.7851L1.3207 31.74C-0.440234 33.5017 -0.440234 36.3567 1.3207 38.1171L31.8839 68.6787C33.6435 70.439 36.4976 70.439 38.2594 68.6787L68.6796 38.259C70.44 36.4981 70.4402 33.6415 68.6798 31.8813Z" fill="#DE4C36"/>
</g>
<defs>
<clipPath id="clip0_2078_1191">
<rect width="70" height="70" fill="white"/>
</clipPath>
</defs>
</svg>
