<svg width="70" height="70" viewBox="0 0 70 70" fill="none" xmlns="http://www.w3.org/2000/svg">
<mask id="mask0_2078_2320" style="mask-type:luminance" maskUnits="userSpaceOnUse" x="1" y="1" width="68" height="68">
<path d="M68.2232 1.43848H1.43835V68.2233H68.2232V1.43848Z" fill="white"/>
</mask>
<g mask="url(#mask0_2078_2320)">
<path d="M61.7012 1.43848H7.9603C4.35833 1.43848 1.43835 4.35848 1.43835 7.96043V61.7014C1.43835 65.3032 4.35833 68.2233 7.9603 68.2233H61.7012C65.3034 68.2233 68.2231 65.3032 68.2231 61.7014V7.96043C68.2231 4.35848 65.3034 1.43848 61.7012 1.43848Z" fill="#3178C6"/>
<path fill-rule="evenodd" clip-rule="evenodd" d="M42.7798 54.5824V61.1123C43.8412 61.6566 45.0968 62.0644 46.546 62.3366C47.9957 62.6087 49.5229 62.7448 51.1291 62.7448C52.694 62.7448 54.1808 62.5954 55.5895 62.2957C56.9983 61.9968 58.2334 61.5034 59.2948 60.8164C60.3563 60.1293 61.1965 59.2315 61.8159 58.1229C62.435 57.0142 62.7447 55.6435 62.7447 54.011C62.7447 52.8277 62.5677 51.7904 62.2142 50.8993C61.8602 50.0081 61.3497 49.2159 60.6831 48.5221C60.0161 47.828 59.2163 47.2056 58.2843 46.6547C57.3522 46.1037 56.3008 45.5836 55.1304 45.0936C54.273 44.74 53.5037 44.3965 52.8234 44.0634C52.143 43.7299 51.5645 43.3897 51.0882 43.0428C50.612 42.696 50.2442 42.3287 49.9858 41.9409C49.7275 41.5531 49.5981 41.1144 49.5981 40.6248C49.5981 40.1759 49.7137 39.7712 49.9449 39.4107C50.1766 39.0501 50.503 38.7407 50.925 38.4822C51.347 38.2238 51.8638 38.023 52.4765 37.8802C53.0888 37.7374 53.7692 37.666 54.518 37.666C55.0623 37.666 55.6371 37.7069 56.2427 37.7884C56.8484 37.8701 57.4574 37.9959 58.0701 38.1659C58.6825 38.336 59.2777 38.5503 59.8562 38.8087C60.4347 39.0672 60.9686 39.3665 61.4586 39.7067V33.6052C60.4652 33.2243 59.38 32.9421 58.2025 32.7584C57.0254 32.5747 55.6747 32.4829 54.1503 32.4829C52.5988 32.4829 51.1291 32.6496 49.7408 32.9829C48.353 33.3161 47.1312 33.8365 46.0764 34.5438C45.0216 35.2513 44.1881 36.1526 43.5757 37.2477C42.9634 38.3427 42.6571 39.6521 42.6571 41.1758C42.6571 43.1213 43.2185 44.7809 44.3413 46.155C45.4641 47.5287 47.1688 48.692 49.4549 49.6441C50.3532 50.0114 51.1905 50.3721 51.966 50.7256C52.742 51.0796 53.4119 51.4469 53.9767 51.8276C54.5414 52.2086 54.9872 52.6236 55.314 53.0723C55.6409 53.5214 55.8041 54.0315 55.8041 54.6029C55.8041 55.0245 55.7018 55.4156 55.4977 55.7762C55.2936 56.1369 54.9839 56.4495 54.569 56.715C54.1536 56.98 53.6365 57.1875 53.0175 57.3373C52.398 57.4867 51.6734 57.5619 50.8432 57.5619C49.4278 57.5619 48.0261 57.3135 46.6378 56.8168C45.2495 56.3205 43.9635 55.5754 42.7798 54.5824ZM31.802 38.4938H40.1788V33.1351H16.8302V38.4938H25.166V62.3537H31.802V38.4938Z" fill="white"/>
</g>
</svg>
